<?xml version="1.0" encoding="UTF-8"?>
<svg version="1.1" xmlns="http://www.w3.org/2000/svg" width="245" height="256">
<path d="M0 0 C0.68281036 0.00054382 1.36562073 0.00108765 2.06912231 0.00164795 C13.10927732 0.04199998 23.39850376 0.92329485 33.9375 4.375 C34.61232422 4.58930664 35.28714844 4.80361328 35.98242188 5.02441406 C51.68896669 10.12866964 65.27674273 17.83264395 77.9375 28.375 C78.81019531 29.08269531 79.68289062 29.79039063 80.58203125 30.51953125 C98.43720371 45.67533905 110.49969633 67.38501811 117.25 89.5625 C117.49250488 90.3572876 117.73500977 91.1520752 117.98486328 91.97094727 C121.38265725 103.69753868 122.34850305 115.21083984 122.3125 127.375 C122.31162384 128.10044006 122.31074768 128.82588013 122.30984497 129.57330322 C122.17347899 163.90072513 109.23627969 195.66317263 85.69140625 220.71875 C62.5875645 243.00330658 32.95491778 255.79322115 0.875 255.75 C0.19218964 255.74945618 -0.49062073 255.74891235 -1.19412231 255.74835205 C-12.23427732 255.70800002 -22.52350376 254.82670515 -33.0625 251.375 C-33.73732422 251.16069336 -34.41214844 250.94638672 -35.10742188 250.72558594 C-50.81396669 245.62133036 -64.40174273 237.91735605 -77.0625 227.375 C-77.93519531 226.66730469 -78.80789062 225.95960938 -79.70703125 225.23046875 C-97.56220371 210.07466095 -109.62469633 188.36498189 -116.375 166.1875 C-116.61750488 165.3927124 -116.86000977 164.5979248 -117.10986328 163.77905273 C-120.50765725 152.05246132 -121.47350305 140.53916016 -121.4375 128.375 C-121.43662384 127.64955994 -121.43574768 126.92411987 -121.43484497 126.17669678 C-121.29847899 91.84927487 -108.36127969 60.08682737 -84.81640625 35.03125 C-61.7125645 12.74669342 -32.07991778 -0.04322115 0 0 Z " fill="#7FBDE3" transform="translate(122.0625,0.625)"/>
<path d="M0 0 C3.63152309 0.20374882 4.5485359 0.61474066 7.625 2.875 C10.86299029 7.46584924 9.95131129 13.28532492 9.5625 18.625 C10.14257812 18.65078125 10.72265625 18.6765625 11.3203125 18.703125 C18.31221957 19.21078822 22.60603476 21.25404502 27.3125 26.5625 C30.85786021 31.38812917 32.06695842 35.19065845 31.95703125 41.13671875 C31.23065951 45.71789499 29.08757763 49.7685178 26.5625 53.625 C25.5725 54.12 25.5725 54.12 24.5625 54.625 C24.2325 65.185 23.9025 75.745 23.5625 86.625 C30.11414507 86.66773074 30.11414507 86.66773074 35.5625 84.625 C36.5525 84.625 37.5425 84.625 38.5625 84.625 C38.6968042 83.75407715 38.8311084 82.8831543 38.96948242 81.98583984 C39.91212781 76.64353585 41.42317261 71.47292622 42.875 66.25 C43.31875977 64.60257813 43.31875977 64.60257813 43.77148438 62.921875 C46.17425156 54.26568567 48.99034264 47.14355127 54.6875 40.125 C55.71230469 38.84109375 55.71230469 38.84109375 56.7578125 37.53125 C57.35335937 36.9021875 57.94890625 36.273125 58.5625 35.625 C59.2225 35.625 59.8825 35.625 60.5625 35.625 C60.8925 34.305 61.2225 32.985 61.5625 31.625 C62.2225 31.625 62.8825 31.625 63.5625 31.625 C63.541875 32.429375 63.52125 33.23375 63.5 34.0625 C63.26616379 36.55854885 63.26616379 36.55854885 64.5625 37.625 C66.78454138 51.29772233 62.5143238 62.82606411 57.56347656 75.34057617 C57.31272873 75.97478989 57.0619809 76.6090036 56.80363464 77.26243591 C56.10829803 79.00442576 55.39752769 80.74023221 54.68579102 82.47558594 C52.80128576 87.75924552 52.42930368 92.92109504 52.234375 98.4765625 C51.5625 100.625 51.5625 100.625 49.1652832 102.41064453 C46.20855222 104.9261262 45.46136301 106.56002517 44.24609375 110.203125 C43.68825195 111.82154297 43.68825195 111.82154297 43.11914062 113.47265625 C42.74982422 114.59542969 42.38050781 115.71820313 42 116.875 C35.74105575 135.44644425 35.74105575 135.44644425 31.5625 139.625 C28.26535207 139.29528521 26.9398161 139.0023161 24.5625 136.625 C23.87228515 127.38673973 27.64360422 118.22390918 30.5625 109.625 C31.0575 108.14 31.0575 108.14 31.5625 106.625 C28.5925 107.615 25.6225 108.605 22.5625 109.625 C22.60890625 110.49898438 22.6553125 111.37296875 22.703125 112.2734375 C23.20818295 129.48148342 19.33638462 146.28462831 9.5625 160.625 C10.2225 161.470625 10.8825 162.31625 11.5625 163.1875 C13.83315397 167.09018652 14.07463521 169.18649484 13.5625 173.625 C11.5625 175.625 11.5625 175.625 8.4375 176.0625 C4.02762775 175.5646112 2.00303804 174.26101356 -1.4453125 171.62109375 C-4.21730334 170.23509833 -5.46494894 170.78883936 -8.4375 171.625 C-34.6437212 178.22292627 -34.6437212 178.22292627 -45.4375 174.625 C-45.80875 175.73875 -45.80875 175.73875 -46.1875 176.875 C-47.6014416 179.98567153 -48.6718655 181.60683429 -51.4375 183.625 C-57.37697703 184.35440946 -57.37697703 184.35440946 -60.1640625 182.4375 C-61.94840843 179.89781745 -61.53551746 178.23715753 -61.25 175.1875 C-61.10968767 172.26887672 -61.10968767 172.26887672 -61.4375 169.625 C-63.97659546 167.20867492 -63.97659546 167.20867492 -67.4375 165.625 C-68.74726977 164.45898544 -70.01768467 163.24759197 -71.25 162 C-71.83394531 161.40960938 -72.41789062 160.81921875 -73.01953125 160.2109375 C-74.4375 158.625 -74.4375 158.625 -75.4375 156.625 C-76.18515625 156.65980469 -76.9328125 156.69460937 -77.703125 156.73046875 C-78.68796875 156.75753906 -79.6728125 156.78460938 -80.6875 156.8125 C-81.66203125 156.84730469 -82.6365625 156.88210937 -83.640625 156.91796875 C-86.85091609 156.58169524 -88.14178952 155.8516266 -90.4375 153.625 C-91.1875 151.25 -91.1875 151.25 -90.4375 148.625 C-89.1202176 147.86748738 -87.76947603 147.16723696 -86.40234375 146.50390625 C-84.1908569 145.25833212 -84.1908569 145.25833212 -82.4375 143.625 C-81.92987773 140.31399283 -81.90505654 138.17938933 -82.25 134.9375 C-82.72749588 126.4910062 -81.76423857 119.05949799 -79.9375 110.8125 C-76.4349533 94.35380163 -76.18157721 78.89328561 -79.76171875 62.46875 C-81.29156484 53.76719767 -81.35998968 44.50496045 -79.125 35.9375 C-78.49868376 33.69173748 -78.49868376 33.69173748 -78.4375 31.625 C-80.7181376 28.50483662 -80.7181376 28.50483662 -83.4375 25.625 C-84.4331119 22.57732136 -84.74006284 19.81618161 -84.4375 16.625 C-82.47914766 12.77823647 -81.02300738 11.01533825 -77.4375 8.625 C-71.39924489 7.83695654 -67.60217352 8.46881063 -62.4375 11.625 C-59.58073478 11.12138414 -59.58073478 11.12138414 -56.4375 9.625 C-54.79389319 8.95286278 -53.14786019 8.28664083 -51.5 7.625 C-50.70722656 7.295 -49.91445312 6.965 -49.09765625 6.625 C-42.22453907 4.04127313 -36.39271366 3.3383711 -29.125 3.4375 C-28.23876953 3.43814453 -27.35253906 3.43878906 -26.43945312 3.43945312 C-21.03826404 3.47490951 -15.80090565 3.84962578 -10.45068359 4.60205078 C-8.21046272 4.86012053 -8.21046272 4.86012053 -6.375 2.6875 C-4.06566141 0.22917182 -3.27889424 0.19888375 0 0 Z " fill="#4C3626" transform="translate(147.4375,42.375)"/>
<path d="M0 0 C2.63464971 1.98816424 5.03020251 4.05376707 7.3125 6.4375 C6.20050663 8.93948509 5.2085062 10.5414938 3.25 12.5 C-0.05689802 17.51368409 -0.14964848 23.04124609 0.6484375 28.90625 C2.29814716 35.16229184 5.93709349 38.97165175 11.3125 42.4375 C13.50965878 43.34242737 13.50965878 43.34242737 15.6875 44 C19.3125 45.4375 19.3125 45.4375 20.5 47.8671875 C21.57869658 52.60722918 21.83654272 57.15068508 21.9375 62 C21.99550781 62.93263672 22.05351562 63.86527344 22.11328125 64.82617188 C22.23620651 71.45940783 22.23620651 71.45940783 19.72021484 74.12353516 C15.69352551 76.74963689 11.29788073 78.36383838 6.6875 79.6875 C5.09035156 80.15929687 5.09035156 80.15929687 3.4609375 80.640625 C-18.49396208 86.19744822 -45.44910844 82.93989286 -66.6875 75.4375 C-67.91855469 75.10105469 -69.14960937 74.76460938 -70.41796875 74.41796875 C-73.98121348 72.25958753 -74.23270684 71.95045109 -75.24609375 68.17578125 C-75.57776054 66.37388248 -75.86820266 64.56408301 -76.125 62.75 C-76.35727295 61.30765991 -76.35727295 61.30765991 -76.59423828 59.83618164 C-80.5857137 32.39313058 -80.5857137 32.39313058 -75.6875 21.4375 C-74.3675 21.4375 -73.0475 21.4375 -71.6875 21.4375 C-71.6875 20.7775 -71.6875 20.1175 -71.6875 19.4375 C-72.7703125 19.128125 -72.7703125 19.128125 -73.875 18.8125 C-77.45309992 17.06320671 -79.81661856 14.92623383 -81.6875 11.4375 C-82.37483421 8.40967431 -82.14437169 6.6356018 -81.6875 3.4375 C-79.89386089 0.6274654 -78.66869065 -1.07190468 -75.6875 -2.5625 C-71.42579477 -3.36156973 -69.67481752 -3.21927454 -66.00390625 -0.77734375 C-63.50328876 1.23379117 -61.0708519 3.28912646 -58.6875 5.4375 C-59.0175 4.1175 -59.3475 2.7975 -59.6875 1.4375 C-43.05508072 -10.78223661 -17.11338323 -11.67271226 0 0 Z " fill="#A3774E" transform="translate(147.6875,55.5625)"/>
<path d="M0 0 C0.68281036 0.00054382 1.36562073 0.00108765 2.06912231 0.00164795 C13.10927732 0.04199998 23.39850376 0.92329485 33.9375 4.375 C34.61232422 4.58930664 35.28714844 4.80361328 35.98242188 5.02441406 C51.68896669 10.12866964 65.27674273 17.83264395 77.9375 28.375 C78.81019531 29.08269531 79.68289062 29.79039063 80.58203125 30.51953125 C98.43720371 45.67533905 110.49969633 67.38501811 117.25 89.5625 C117.49250488 90.3572876 117.73500977 91.1520752 117.98486328 91.97094727 C121.38265725 103.69753868 122.34850305 115.21083984 122.3125 127.375 C122.31162384 128.10044006 122.31074768 128.82588013 122.30984497 129.57330322 C122.17347899 163.90072513 109.23627969 195.66317263 85.69140625 220.71875 C62.5875645 243.00330658 32.95491778 255.79322115 0.875 255.75 C0.19218964 255.74945618 -0.49062073 255.74891235 -1.19412231 255.74835205 C-12.23427732 255.70800002 -22.52350376 254.82670515 -33.0625 251.375 C-33.73732422 251.16069336 -34.41214844 250.94638672 -35.10742188 250.72558594 C-50.81396669 245.62133036 -64.40174273 237.91735605 -77.0625 227.375 C-77.93519531 226.66730469 -78.80789062 225.95960938 -79.70703125 225.23046875 C-97.56220371 210.07466095 -109.62469633 188.36498189 -116.375 166.1875 C-116.61750488 165.3927124 -116.86000977 164.5979248 -117.10986328 163.77905273 C-120.50765725 152.05246132 -121.47350305 140.53916016 -121.4375 128.375 C-121.43662384 127.64955994 -121.43574768 126.92411987 -121.43484497 126.17669678 C-121.29847899 91.84927487 -108.36127969 60.08682737 -84.81640625 35.03125 C-61.7125645 12.74669342 -32.07991778 -0.04322115 0 0 Z M-81.375 43.34765625 C-106.09255832 70.60382345 -114.44376583 103.10495231 -113.22216797 139.1953125 C-111.63191047 170.86429354 -94.69211548 199.68359765 -71.82080078 220.81933594 C-49.39594772 240.65981965 -19.47329458 249.0838151 9.9375 247.375 C40.50438424 244.53391188 67.26796117 228.28694471 87.359375 205.63671875 C101.57560182 188.26072195 108.44831419 168.02760202 112.9375 146.375 C113.20904907 145.17460083 113.20904907 145.17460083 113.48608398 143.94995117 C118.60134179 114.77167964 109.88543671 82.84986736 93.625 58.5625 C74.91066446 33.02522963 50.42699088 14.81885176 18.87109375 8.7890625 C-20.01927694 4.69533927 -54.09255752 15.07384595 -81.375 43.34765625 Z " fill="#4E86AE" transform="translate(122.0625,0.625)"/>
<path d="M0 0 C0.50144531 0.17015625 1.00289063 0.3403125 1.51953125 0.515625 C7.50195473 2.43163116 13.54639002 3.83338208 19.6875 5.125 C20.49485596 5.29547852 21.30221191 5.46595703 22.1340332 5.64160156 C31.41856508 7.55971206 40.39039963 8.214973 49.8581543 8.24023438 C52.03278938 8.24986838 54.20644809 8.28091885 56.38085938 8.3125 C68.21403395 8.40220965 79.44833643 7.1860979 90.23046875 1.8671875 C92 1 92 1 95 0 C95.26359518 9.13796619 94.86953064 18.14044861 94.125 27.25 C94.04652832 28.24257812 93.96805664 29.23515625 93.88720703 30.2578125 C93.6349393 33.17850144 93.33394184 36.08755709 93 39 C92.8875293 40.01513672 92.77505859 41.03027344 92.65917969 42.07617188 C91.63120102 49.39961712 91.63120102 49.39961712 88.83984375 52.0546875 C85.4340347 53.1883956 82.04464602 54.25706729 78.5625 55.125 C77.91990234 55.29386719 77.27730469 55.46273437 76.61523438 55.63671875 C67.34928894 58.02610975 58.38055004 58.2814901 48.875 58.3125 C47.73233673 58.31642761 47.73233673 58.31642761 46.56658936 58.32043457 C34.31928304 58.32494733 22.82191065 57.4285601 11 54 C9.17275391 53.47986328 9.17275391 53.47986328 7.30859375 52.94921875 C-2.31926076 49.9484795 -2.31926076 49.9484795 -6 47 C-8.38994592 36.22297678 -4.71505993 23.88869224 -2.48730469 13.34033203 C-1.8539864 10.29875431 -1.29462419 7.2460779 -0.75 4.1875 C-0.60046875 3.35605469 -0.4509375 2.52460938 -0.296875 1.66796875 C-0.19890625 1.11753906 -0.1009375 0.56710938 0 0 Z " fill="#F8F9F9" transform="translate(74,131)"/>
<path d="M0 0 C1.46015291 0.28241641 2.91809793 0.57626614 4.375 0.875 C5.18710938 1.03742188 5.99921875 1.19984375 6.8359375 1.3671875 C9 2 9 2 11 4 C12.3222415 9.09785031 12.40759102 14.26191507 12.5625 19.5 C12.62501953 20.43714844 12.68753906 21.37429687 12.75195312 22.33984375 C12.90859518 29.0327317 12.90859518 29.0327317 10.41210938 31.69042969 C6.38538315 34.31495778 1.98433896 35.92663748 -2.625 37.25 C-3.68976563 37.56453125 -4.75453125 37.8790625 -5.8515625 38.203125 C-13.13562047 40.04673273 -20.08755813 40.19226482 -27.5625 40.1875 C-29.30454712 40.18737915 -29.30454712 40.18737915 -31.08178711 40.18725586 C-51.95180931 40.04819069 -51.95180931 40.04819069 -55 37 C-57.94453376 17.0426045 -57.94453376 17.0426045 -52 9 C-49.32201162 6.32201162 -47.47945445 6.54222207 -43.75 6.125 C-38.22784612 5.41515764 -38.22784612 5.41515764 -33.4375 2.8125 C-31 1 -31 1 -28.625 1.25 C-28.08875 1.4975 -27.5525 1.745 -27 2 C-27.33 2.66 -27.66 3.32 -28 4 C-28.4167552 6.95788569 -28.4167552 6.95788569 -28 10 C-25.67664502 12.32335498 -22.96584667 13.62299976 -20 15 C-20 15.66 -20 16.32 -20 17 C-19.34 17 -18.68 17 -18 17 C-18 15.68 -18 14.36 -18 13 C-13.67265609 10.77076223 -10.71599818 11.07529447 -6 12 C-6 12.99 -6 13.98 -6 15 C-5.34 15 -4.68 15 -4 15 C-3.896875 14.38125 -3.79375 13.7625 -3.6875 13.125 C-3 11 -3 11 0 9 C0.36362818 6.79274927 0.36362818 6.79274927 0.1875 4.375 C0.16042969 3.55773437 0.13335937 2.74046875 0.10546875 1.8984375 C0.05326172 0.95871094 0.05326172 0.95871094 0 0 Z " fill="#ECC895" transform="translate(157,98)"/>
<path d="M0 0 C0.6084375 0.17015625 1.216875 0.3403125 1.84375 0.515625 C30.00619611 8.30171304 59.26020876 13.65013745 87.93359375 4.5859375 C90 4 90 4 93 4 C91.69140501 12.49099705 85.95898906 18.81013002 79.546875 24.2109375 C66.10330761 33.65442502 50.67868562 33.29245217 35 33 C35 31.68 35 30.36 35 29 C32.21297611 30.39351194 31.8142546 32.14470897 30.5 34.9375 C28.20980926 39.79019074 28.20980926 39.79019074 26 42 C23.5 42.3125 23.5 42.3125 21 42 C18.66484308 38.49726462 18.86052108 37.55147373 19.3125 33.5 C19.41175781 32.5409375 19.51101562 31.581875 19.61328125 30.59375 C20 28 20 28 21 25 C20.34 25 19.68 25 19 25 C19 25.66 19 26.32 19 27 C13.24963832 25.88257164 9.61883791 22.27522322 6.28515625 17.58984375 C2.75122023 11.86123842 0 6.85815838 0 0 Z " fill="#A4774E" transform="translate(69,182)"/>
<path d="M0 0 C0.66 0 1.32 0 2 0 C1.979375 0.804375 1.95875 1.60875 1.9375 2.4375 C1.70366379 4.93354885 1.70366379 4.93354885 3 6 C5.22204138 19.67272233 0.9518238 31.20106411 -3.99902344 43.71557617 C-4.24977127 44.34978989 -4.5005191 44.9840036 -4.75886536 45.63743591 C-5.45420197 47.37942576 -6.16497231 49.11523221 -6.87670898 50.85058594 C-8.76121424 56.13424552 -9.13319632 61.29609504 -9.328125 66.8515625 C-10 69 -10 69 -12.3972168 70.78564453 C-15.35394778 73.3011262 -16.10113699 74.93502517 -17.31640625 78.578125 C-17.87424805 80.19654297 -17.87424805 80.19654297 -18.44335938 81.84765625 C-18.81267578 82.97042969 -19.18199219 84.09320313 -19.5625 85.25 C-25.82144425 103.82144425 -25.82144425 103.82144425 -30 108 C-33.29714793 107.67028521 -34.6226839 107.3773161 -37 105 C-37.69021485 95.76173973 -33.91889578 86.59890918 -31 78 C-30.67 77.01 -30.34 76.02 -30 75 C-30.5775 75.185625 -31.155 75.37125 -31.75 75.5625 C-34 76 -34 76 -38 75 C-38 69.06 -38 63.12 -38 57 C-37.01 57 -36.02 57 -35 57 C-34.67 58.65 -34.34 60.3 -34 62 C-33.01 62 -32.02 62 -31 62 C-31.33 60.68 -31.66 59.36 -32 58 C-29.69 57.34 -27.38 56.68 -25 56 C-25.33 59.63 -25.66 63.26 -26 67 C-22.49029056 56.74396145 -19.01573856 46.47651383 -16 36.0625 C-15.78061768 35.33691895 -15.56123535 34.61133789 -15.33520508 33.86376953 C-14.10324311 29.48791463 -14.13442156 26.41634547 -15 22 C-13.31339789 15.25359154 -7.66604801 8.92863945 -3 4 C-2.34 4 -1.68 4 -1 4 C-0.67 2.68 -0.34 1.36 0 0 Z " fill="#4C86B7" transform="translate(209,74)"/>
<path d="M0 0 C5.27340163 1.50125668 8.50577589 5.13220433 11.1171875 9.79296875 C12.95395512 14.38488781 12.81639633 18.54646848 11.265625 23.20703125 C9.29933971 27.5505877 7.0815024 30.38365231 3 33 C-2.81385476 34.93795159 -8.92108776 35.02055692 -14.4375 32.3125 C-19.58218487 27.66973561 -22.67628675 23.56084577 -23.3125 16.5625 C-22.73876356 10.02190456 -19.78451205 6.30606084 -15 2 C-10.30336766 -1.13108823 -5.49592929 -0.55600841 0 0 Z " fill="#F9F8F7" transform="translate(118,68)"/>
<path d="M0 0 C4.31662799 2.03614528 7.09774711 4.58281239 9.30859375 8.875 C11.09971965 14.37992931 10.65157571 20.00907421 8.875 25.4375 C5.91661229 29.48062987 2.98212693 31.66964551 -2 32.5 C-7.37795283 31.60367453 -10.70089726 28.79174455 -13.875 24.5 C-16.90166008 19.26946122 -16.90659591 13.8681481 -16 8 C-13.02361685 0.48679983 -7.40469042 -1.00166189 0 0 Z " fill="#F8F7F6" transform="translate(166,65)"/>
<path d="M0 0 C-2.12544662 7.61618372 -6.27912672 12.11178106 -13 16 C-20.64958314 19.75742734 -29.67183327 20.64675483 -37.84375 18.12109375 C-43.36812261 15.60018276 -47.82036344 12.24464038 -51 7 C-51.35631294 5.6726229 -51.69265307 4.33956215 -52 3 C-51.00540771 3.01571045 -51.00540771 3.01571045 -49.99072266 3.03173828 C-33.25167712 3.26016886 -16.33477186 -0.36299493 0 0 Z " fill="#EDC895" transform="translate(157,188)"/>
<path d="M0 0 C3.04184655 1.52092327 3.11415314 3.83490891 4.1875 7 C7.63764104 16.21723896 11.97787448 22.76512475 21 27 C21 26.34 21 25.68 21 25 C21.66 25 22.32 25 23 25 C22.91621094 25.98742187 22.83242187 26.97484375 22.74609375 27.9921875 C22.64425781 29.27351563 22.54242188 30.55484375 22.4375 31.875 C22.33308594 33.15117187 22.22867188 34.42734375 22.12109375 35.7421875 C21.74316633 38.88643942 21.74316633 38.88643942 23 41 C25.28341743 41.67154684 25.28341743 41.67154684 28 41 C30.99417026 37.42741049 32.94865082 33.1588997 35 29 C35.66 29 36.32 29 37 29 C37 30.32 37 31.64 37 33 C57.22652847 32.20900859 57.22652847 32.20900859 76.37109375 26.0234375 C79 25 79 25 83 25 C84.62485459 23.7087646 84.62485459 23.7087646 86 22 C86.99509813 20.99512204 87.99444457 19.99441354 89 19 C92.63621411 23.9997944 94.90022691 27.56980776 94 34 C92 36 92 36 88.875 36.4375 C84.46512775 35.9396112 82.44053804 34.63601356 78.9921875 31.99609375 C76.22019666 30.61009833 74.97255106 31.16383936 72 32 C45.7937788 38.59792627 45.7937788 38.59792627 35 35 C34.7525 35.7425 34.505 36.485 34.25 37.25 C32.8360584 40.36067153 31.7656345 41.98183429 29 44 C23.06052297 44.72940946 23.06052297 44.72940946 20.2734375 42.8125 C18.48909157 40.27281745 18.90198254 38.61215753 19.1875 35.5625 C19.32781233 32.64387672 19.32781233 32.64387672 19 30 C16.46090454 27.58367492 16.46090454 27.58367492 13 26 C11.69023023 24.83398544 10.41981533 23.62259197 9.1875 22.375 C8.60355469 21.78460938 8.01960938 21.19421875 7.41796875 20.5859375 C6 19 6 19 5 17 C3.87851563 17.05220703 3.87851563 17.05220703 2.734375 17.10546875 C1.74953125 17.13253906 0.7646875 17.15960938 -0.25 17.1875 C-1.22453125 17.22230469 -2.1990625 17.25710937 -3.203125 17.29296875 C-6.46040587 16.95177313 -7.79622351 16.41890705 -10 14 C-10.52734375 11.5078125 -10.52734375 11.5078125 -10 9 C-8.06640625 7.3046875 -8.06640625 7.3046875 -5.5625 5.875 C-1.75519124 3.83304055 -1.75519124 3.83304055 0 0 Z " fill="#49301D" transform="translate(67,182)"/>
<path d="M0 0 C0.66 0 1.32 0 2 0 C2 0.66 2 1.32 2 2 C4.97 2.495 4.97 2.495 8 3 C8.125 8.75 8.125 8.75 7 11 C5.2984375 11.4640625 5.2984375 11.4640625 3.5625 11.9375 C-0.23216998 12.65621357 -0.23216998 12.65621357 -2 16 C-2.4167552 18.95788569 -2.4167552 18.95788569 -2 22 C-1.47792969 22.63550781 -0.95585937 23.27101562 -0.41796875 23.92578125 C1 26 1 26 0.8125 28.015625 C0.544375 28.75296875 0.27625 29.4903125 0 30.25 C-0.29519531 31.10851562 -0.59039062 31.96703125 -0.89453125 32.8515625 C-1.25933594 33.89054687 -1.62414062 34.92953125 -2 36 C-2.91468108 38.86918103 -3.79919749 41.74756164 -4.6875 44.625 C-5.12811857 46.03410071 -5.56946403 47.44297445 -6.01171875 48.8515625 C-6.33785156 49.89054687 -6.66398438 50.92953125 -7 52 C-8.98 51.67 -10.96 51.34 -13 51 C-14.16572851 46.72566213 -13.65513648 43.34027917 -13 39 C-13.33 38.34 -13.66 37.68 -14 37 C-13.44140625 35.0546875 -13.44140625 35.0546875 -12.5625 32.875 C-12.27503906 32.15054688 -11.98757812 31.42609375 -11.69140625 30.6796875 C-11.46324219 30.12539062 -11.23507813 29.57109375 -11 29 C-11.5775 29.185625 -12.155 29.37125 -12.75 29.5625 C-15 30 -15 30 -19 29 C-19 23.06 -19 17.12 -19 11 C-18.01 11 -17.02 11 -16 11 C-15.67 12.65 -15.34 14.3 -15 16 C-14.01 16 -13.02 16 -12 16 C-12.33 14.68 -12.66 13.36 -13 12 C-10.69 11.34 -8.38 10.68 -6 10 C-6.33 13.63 -6.66 17.26 -7 21 C-4.69 14.07 -2.38 7.14 0 0 Z " fill="#4A87B9" transform="translate(190,120)"/>
<path d="M0 0 C3.125 1.875 3.125 1.875 5 4 C5 4.66 5 5.32 5 6 C3.02 6.66 1.04 7.32 -1 8 C-1.495 7.505 -1.495 7.505 -2 7 C-4.92837603 6.71196301 -7.15034122 6.51306801 -10 7 C-13.07536739 9.61406228 -13.89467195 11.12226628 -14.375 15.125 C-14.19032214 18.19380972 -14.19032214 18.19380972 -12 21 C-7.20188123 21.59083965 -7.20188123 21.59083965 -3.0625 19.5 C-2.711875 19.005 -2.36125 18.51 -2 18 C-4.31 17.67 -6.62 17.34 -9 17 C-8.34 15.02 -7.68 13.04 -7 11 C-2.71 11 1.58 11 6 11 C6 17.57716496 5.0699093 20.12256901 1 25 C-3.06432031 27.95586932 -6.8897266 28.60985999 -11.8203125 28.40234375 C-15.51002882 27.72126708 -17.87943449 25.97694773 -20 23 C-21.29705426 20.06197558 -22.2265437 17.11417931 -23 14 C-23.33 14.99 -23.66 15.98 -24 17 C-26.64 17 -29.28 17 -32 17 C-31.67 16.34 -31.34 15.68 -31 15 C-33.64 14.67 -36.28 14.34 -39 14 C-39 13.34 -39 12.68 -39 12 C-37.74703125 11.99742187 -36.4940625 11.99484375 -35.203125 11.9921875 C-33.55204766 11.95466302 -31.90100665 11.9155155 -30.25 11.875 C-29.425 11.87757813 -28.6 11.88015625 -27.75 11.8828125 C-25.36052748 11.80573274 -23.2987174 11.66400557 -21 11 C-18.50413353 8.20497298 -18.50413353 8.20497298 -17 5 C-11.40522564 0.07127021 -7.3829599 -0.86926529 0 0 Z " fill="#5592C3" transform="translate(152,148)"/>
<path d="M0 0 C2.875 2.375 2.875 2.375 5 5 C5.598125 5.45375 6.19625 5.9075 6.8125 6.375 C8.86624086 9.18538223 8.41636059 11.66911531 8 15 C6.0625 16.75 6.0625 16.75 4 18 C3.67 18.99 3.34 19.98 3 21 C2.34 21 1.68 21 1 21 C1 20.01 1 19.02 1 18 C-3.16138263 17.91840426 -6.9472484 18.01751476 -11 19 C-11 20.32 -11 21.64 -11 23 C-11.66 23 -12.32 23 -13 23 C-13.33 22.34 -13.66 21.68 -14 21 C-15.99145391 19.98308736 -17.99187074 18.98357352 -20 18 C-22 16 -22 16 -22.375 13.1875 C-21.91271304 9.25806086 -20.81372606 7.735567 -18 5 C-15.8125 4.375 -15.8125 4.375 -14 4 C-13.67 3.01 -13.34 2.02 -13 1 C-8.80503808 -1.79970107 -4.69759114 -1.31935923 0 0 Z " fill="#4E331E" transform="translate(150,92)"/>
<path d="M0 0 C3.83075165 0.1833198 4.50242878 0.57473633 7.625 3.1875 C9.80117835 7.04846159 9.9984501 9.26549896 9.5625 13.625 C9.2325 13.625 8.9025 13.625 8.5625 13.625 C8.5625 11.645 8.5625 9.665 8.5625 7.625 C7.9025 7.625 7.2425 7.625 6.5625 7.625 C6.005625 6.944375 5.44875 6.26375 4.875 5.5625 C2.58406088 3.18927496 2.58406088 3.18927496 -1.1875 3.875 C-2.26 4.1225 -3.3325 4.37 -4.4375 4.625 C-5.0975 6.275 -5.7575 7.925 -6.4375 9.625 C-7.54931641 9.30015625 -7.54931641 9.30015625 -8.68359375 8.96875 C-24.27985302 4.84538158 -41.43070068 4.76998234 -55.875 12.875 C-56.720625 13.4525 -57.56625 14.03 -58.4375 14.625 C-58.4375 15.945 -58.4375 17.265 -58.4375 18.625 C-61.29629604 17.41550937 -62.93272083 16.16279389 -65.25 14 C-68.26835229 11.37930762 -68.26835229 11.37930762 -72 11 C-75.53889609 11.40323292 -75.53889609 11.40323292 -78.375 13.625 C-80.68565788 16.98595691 -81.12922285 18.718963 -80.859375 22.69921875 C-80.17602974 25.81856331 -78.72723216 27.45903714 -76.4375 29.625 C-74.78088239 30.64156081 -73.11638441 31.64565076 -71.4375 32.625 C-71.4375 33.285 -71.4375 33.945 -71.4375 34.625 C-73.4175 35.12 -73.4175 35.12 -75.4375 35.625 C-76.94107202 40.752893 -76.62179525 45.94934921 -76.625 51.25 C-76.63724609 52.29285156 -76.64949219 53.33570313 -76.66210938 54.41015625 C-76.67317763 60.32060277 -76.18613837 65.71317267 -74.88500977 71.47705078 C-74.33883905 74.09855104 -74.23613274 76.57714577 -74.3125 79.25 C-74.33054687 80.08789062 -74.34859375 80.92578125 -74.3671875 81.7890625 C-74.40199219 82.69785156 -74.40199219 82.69785156 -74.4375 83.625 C-81.46915973 70.61955713 -82.77863462 50.12965297 -79.125 35.9375 C-78.49868376 33.69173748 -78.49868376 33.69173748 -78.4375 31.625 C-80.7181376 28.50483662 -80.7181376 28.50483662 -83.4375 25.625 C-84.4331119 22.57732136 -84.74006284 19.81618161 -84.4375 16.625 C-82.47914766 12.77823647 -81.02300738 11.01533825 -77.4375 8.625 C-71.39924489 7.83695654 -67.60217352 8.46881063 -62.4375 11.625 C-59.58073478 11.12138414 -59.58073478 11.12138414 -56.4375 9.625 C-54.79389319 8.95286278 -53.14786019 8.28664083 -51.5 7.625 C-50.70722656 7.295 -49.91445312 6.965 -49.09765625 6.625 C-42.22453907 4.04127313 -36.39271366 3.3383711 -29.125 3.4375 C-28.23876953 3.43814453 -27.35253906 3.43878906 -26.43945312 3.43945312 C-21.03826404 3.47490951 -15.80090565 3.84962578 -10.45068359 4.60205078 C-8.21046272 4.86012053 -8.21046272 4.86012053 -6.375 2.6875 C-4.06566141 0.22917182 -3.27889424 0.19888375 0 0 Z " fill="#4B3422" transform="translate(147.4375,42.375)"/>
<path d="M0 0 C0.66 0 1.32 0 2 0 C1.33223699 6.94097324 -1.04602478 12.9754923 -3.56054688 19.44140625 C-5.43932243 24.52149088 -6.34627167 28.67258328 -5.99267578 34.1003418 C-6.00405071 37.05062007 -7.17226417 38.76610065 -9 41 C-9.99 41.66 -10.98 42.32 -12 43 C-13.1816571 45.45681825 -13.1816571 45.45681825 -14.12109375 48.3828125 C-14.49943359 49.46820313 -14.87777344 50.55359375 -15.26757812 51.671875 C-15.65365234 52.81140625 -16.03972656 53.9509375 -16.4375 55.125 C-22.84778314 73.84778314 -22.84778314 73.84778314 -27 78 C-30.29714793 77.67028521 -31.6226839 77.3773161 -34 75 C-34.24127731 68.27870356 -32.95158459 61.07263815 -30 55 C-29.01 54.505 -29.01 54.505 -28 54 C-28.33 57.96 -28.66 61.92 -29 66 C-27.02 66.66 -25.04 67.32 -23 68 C-22.90074219 67.02417969 -22.80148438 66.04835938 -22.69921875 65.04296875 C-21.94892492 59.76700875 -19.87779101 54.9745771 -17.90820312 50.05273438 C-16.20162519 45.89485687 -16.20162519 45.89485687 -16.76171875 41.60546875 C-17.17035156 41.07566406 -17.57898438 40.54585937 -18 40 C-19.42662219 37.14675563 -19.31033868 35.16545451 -19 32 C-17.375 29.125 -17.375 29.125 -15 27 C-11.75 26.6875 -11.75 26.6875 -9 27 C-8.85304687 26.47535156 -8.70609375 25.95070312 -8.5546875 25.41015625 C-6.0660261 16.81426257 -3.01845906 8.42042625 0 0 Z " fill="#4B382B" transform="translate(206,104)"/>
<path d="M0 0 C3.4375 0.875 3.4375 0.875 4.875 2.9375 C5.1534375 3.8965625 5.1534375 3.8965625 5.4375 4.875 C6.0975 4.875 6.7575 4.875 7.4375 4.875 C7.7675 8.505 8.0975 12.135 8.4375 15.875 C10.479375 15.99875 10.479375 15.99875 12.5625 16.125 C18.54299834 16.80928899 22.2380546 19.35789298 26.1875 23.8125 C29.73286021 28.63812917 30.94195842 32.44065845 30.83203125 38.38671875 C30.10565951 42.96789499 27.96257763 47.0185178 25.4375 50.875 C24.4475 51.37 24.4475 51.37 23.4375 51.875 C22.97098793 54.00076782 22.97098793 54.00076782 22.8125 56.4375 C22.73773438 57.26378906 22.66296875 58.09007812 22.5859375 58.94140625 C22.53695312 59.57949219 22.48796875 60.21757813 22.4375 60.875 C22.1075 60.875 21.7775 60.875 21.4375 60.875 C21.4375 58.565 21.4375 56.255 21.4375 53.875 C20.7775 53.875 20.1175 53.875 19.4375 53.875 C19.1075 54.865 18.7775 55.855 18.4375 56.875 C11.17940546 54.17001569 4.25806308 50.7351885 0.23828125 43.80859375 C-2.06808396 37.97484645 -2.24992847 31.9080104 -0.5625 25.875 C1.13652417 23.16688689 3.06092991 21.00446495 5.4375 18.875 C3.90986536 14.78903748 1.32665809 13.07673821 -2.1875 10.625 C-3.69183594 9.56539062 -3.69183594 9.56539062 -5.2265625 8.484375 C-5.99742187 7.95328125 -6.76828125 7.4221875 -7.5625 6.875 C-7.25 4.5 -7.25 4.5 -6.5625 1.875 C-3.5625 -0.125 -3.5625 -0.125 0 0 Z M3.4375 23.875 C0.38225662 28.81539355 0.74027078 34.26841449 1.4375 39.875 C3.5377449 45.46363449 7.05259807 49.23749701 12.4375 51.875 C16.36602437 52.52975406 18.06344235 52.06569606 21.625 50.25 C25.50797247 46.97104547 27.08953876 44.39965208 27.7890625 39.32421875 C28.1448927 32.554081 26.95912072 27.98530819 22.4375 22.875 C18.79483635 19.63707675 15.30864774 19.35464792 10.58984375 19.51953125 C7.31243209 20.06080976 5.64929019 21.46213797 3.4375 23.875 Z " fill="#4D331F" transform="translate(148.5625,45.125)"/>
<path d="M0 0 C0.66 0 1.32 0 2 0 C0.74433095 3.47723736 -0.73343156 6.09382458 -3 9 C-2.38511719 9.39832031 -1.77023438 9.79664063 -1.13671875 10.20703125 C-0.32847656 10.73683594 0.47976562 11.26664063 1.3125 11.8125 C2.11300781 12.33457031 2.91351563 12.85664063 3.73828125 13.39453125 C6 15 6 15 7.66796875 16.69921875 C8.92818133 18.2328882 8.92818133 18.2328882 11 18 C11.99 16.02 12.98 14.04 14 12 C14.66 12 15.32 12 16 12 C15.46608326 16.53829228 13.80333268 19.4179638 11 23 C9.36368108 24.04892238 7.69514137 25.04906703 6 26 C4.31384218 27.64694485 2.64429829 29.31126121 1 31 C-1.78863007 32.39431504 -3.92078868 32.25660094 -7 32 C-9.84694032 27.72958952 -9.38841979 24.01137695 -9 19 C-8.0625 15.125 -8.0625 15.125 -7 12 C-6.87367187 11.36320313 -6.74734375 10.72640625 -6.6171875 10.0703125 C-5.85952119 7.5287736 -4.66041031 5.85971044 -3.0625 3.75 C-2.53785156 3.04359375 -2.01320313 2.3371875 -1.47265625 1.609375 C-0.98667969 1.07828125 -0.50070313 0.5471875 0 0 Z " fill="#513724" transform="translate(85,141)"/>
<path d="M0 0 C6.99223938 -0.43701496 12.37786501 0.78575268 17.8125 5.375 C23.44606623 12.13527947 23.77425808 17.36320562 23 26 C21.29341707 31.52129772 17.64086032 34.76242358 13 38 C7.58493487 40.83060223 1.81819213 40.39471556 -4 39 C-9.28547783 36.45839751 -13.06666797 32.67408139 -15.37109375 27.26953125 C-16.82582691 22.019842 -17.12640238 16.76522551 -15.046875 11.66015625 C-12.30162645 6.99497122 -8.98511669 2.96814595 -3.6875 1.25 C-3.130625 1.1675 -2.57375 1.085 -2 1 C-1.67 1.66 -1.34 2.32 -1 3 C-6.75 7 -6.75 7 -9 7 C-9.68620031 8.32338632 -10.34786461 9.65949948 -11 11 C-11.37125 11.763125 -11.7425 12.52625 -12.125 13.3125 C-13.76458668 18.34837337 -13.5032274 22.41579416 -11.3125 27.1875 C-9.05618336 31.33077184 -6.23077385 33.88461307 -2 36 C3.08315807 36.51421665 8.26182313 36.80734489 12.9375 34.5 C17.34926189 30.89856172 19.37837578 27.36028939 20.4140625 21.76171875 C20.74850601 16.66585579 19.61663339 12.90390615 16.6875 8.7265625 C12.31332613 4.25113461 6.08146306 2.6237398 0 2 C0 1.34 0 0.68 0 0 Z " fill="#523926" transform="translate(109,65)"/>
<path d="M0 0 C0.99 0.33 1.98 0.66 3 1 C3 1.66 3 2.32 3 3 C4.32 2.67 5.64 2.34 7 2 C7 2.99 7 3.98 7 5 C5.35 5.33 3.7 5.66 2 6 C2.04640625 6.87398437 2.0928125 7.74796875 2.140625 8.6484375 C2.61800464 24.91344376 -0.33953668 43.15277498 -11 56 C-11.99 56.33 -12.98 56.66 -14 57 C-13.67 57.66 -13.34 58.32 -13 59 C-16.465 60.98 -16.465 60.98 -20 63 C-20.33 62.01 -20.66 61.02 -21 60 C-20.49210937 59.61070312 -19.98421875 59.22140625 -19.4609375 58.8203125 C-13.15148988 53.69240938 -8.5925893 47.7777679 -6 40 C-7.08152344 40.3609375 -8.16304687 40.721875 -9.27734375 41.09375 C-22.93212997 45.32177465 -35.78924075 45.56564565 -50 45 C-50 44.67 -50 44.34 -50 44 C-49.26064209 43.93006836 -48.52128418 43.86013672 -47.75952148 43.78808594 C-27.56466289 42.01534241 -27.56466289 42.01534241 -8 37 C-7.24976563 36.80792969 -6.49953125 36.61585938 -5.7265625 36.41796875 C-2.69571226 33.92883156 -2.783624 30.0651714 -2.3125 26.375 C-2.19221436 25.53283936 -2.07192871 24.69067871 -1.94799805 23.82299805 C-0.86941729 15.9057247 -0.31926478 7.98161942 0 0 Z " fill="#4E3522" transform="translate(168,146)"/>
<path d="M0 0 C0.66 0 1.32 0 2 0 C1.979375 0.804375 1.95875 1.60875 1.9375 2.4375 C1.70366379 4.93354885 1.70366379 4.93354885 3 6 C3.15514859 8.86726528 3.23182934 11.693807 3.25 14.5625 C3.270625 15.34947266 3.29125 16.13644531 3.3125 16.94726562 C3.34999866 22.63300006 2.26980968 26.78541093 0 32 C-2 30 -2 30 -2.125 26.875 C-2.08375 25.92625 -2.0425 24.9775 -2 24 C-5.3 23.01 -8.6 22.02 -12 21 C-12.33 21.99 -12.66 22.98 -13 24 C-13.66 24 -14.32 24 -15 24 C-13.72158138 18.29796239 -11.64004468 14.5917556 -8 10.0625 C-7.32324219 9.17981445 -7.32324219 9.17981445 -6.6328125 8.27929688 C-5.47732461 6.80758819 -4.24414566 5.39756227 -3 4 C-2.34 4 -1.68 4 -1 4 C-0.67 2.68 -0.34 1.36 0 0 Z " fill="#4D3E32" transform="translate(209,74)"/>
<path d="M0 0 C6.50723026 8.02558398 6.50723026 8.02558398 6 15 C4 17 4 17 0.875 17.4375 C-3.53487225 16.9396112 -5.55946196 15.63601356 -9.0078125 12.99609375 C-11.77980334 11.61009833 -13.02744894 12.16383936 -16 13 C-27.57961917 15.91539451 -38.03994029 17.58659693 -50 17 C-50 16.67 -50 16.34 -50 16 C-48.67935547 15.92652344 -48.67935547 15.92652344 -47.33203125 15.8515625 C-46.17058594 15.77679688 -45.00914063 15.70203125 -43.8125 15.625 C-42.08966797 15.52058594 -42.08966797 15.52058594 -40.33203125 15.4140625 C-37.16343242 15.0203093 -34.91363477 14.23305785 -32 13 C-30.31937175 12.68936255 -28.63072056 12.41990282 -26.9375 12.1875 C-21.4170414 11.26742357 -16.69593514 9.35791419 -11.62890625 7.0234375 C-9 6 -9 6 -5 6 C-2.78125663 4.20793805 -1.605504 2.408256 0 0 Z " fill="#4A3424" transform="translate(155,201)"/>
<path d="M0 0 C-0.92217859 10.6737266 -2.25195354 20.63001336 -5 31 C-5.99 30.34 -6.98 29.68 -8 29 C-7.01 25.7 -6.02 22.4 -5 19 C-6.32 19.33 -7.64 19.66 -9 20 C-10.32 19.67 -11.64 19.34 -13 19 C-13 13.06 -13 7.12 -13 1 C-12.01 1 -11.02 1 -10 1 C-9.67 2.65 -9.34 4.3 -9 6 C-8.01 6 -7.02 6 -6 6 C-6.33 4.68 -6.66 3.36 -7 2 C-2.25 0 -2.25 0 0 0 Z " fill="#4E3B2D" transform="translate(184,130)"/>
<path d="M0 0 C1.875 0.8125 1.875 0.8125 3.875 2.8125 C4.1875 5.3125 4.1875 5.3125 3.875 7.8125 C0.875 9.8125 0.875 9.8125 -3.0625 9.3125 C-4.06603516 9.11140625 -4.06603516 9.11140625 -5.08984375 8.90625 C-7.63638037 8.78894313 -8.87822992 9.66329002 -11.125 10.8125 C-13.44921875 11.04296875 -13.44921875 11.04296875 -15.8125 11 C-16.99392578 10.99033203 -16.99392578 10.99033203 -18.19921875 10.98046875 C-20.125 10.8125 -20.125 10.8125 -21.125 9.8125 C-21.58191383 4.55799098 -21.58191383 4.55799098 -19.9375 1.875 C-18.125 0.8125 -18.125 0.8125 -15.875 1.0625 C-14.9675 1.31 -14.06 1.5575 -13.125 1.8125 C-9.60555874 2.63682642 -9.60555874 2.63682642 -6.125 2.8125 C-1.79275244 -0.15818404 -1.79275244 -0.15818404 0 0 Z " fill="#E7C493" transform="translate(152.125,98.1875)"/>
<path d="M0 0 C0.33 0 0.66 0 1 0 C0.4361469 5.45664288 -0.55872387 10.5039809 -2.1875 15.75 C-2.50980591 16.8162561 -2.50980591 16.8162561 -2.83862305 17.90405273 C-3.30359785 19.44120472 -3.77121937 20.97755808 -4.24121094 22.51318359 C-5.34017925 26.11488606 -6.41663124 29.72324905 -7.49536133 33.33105469 C-8.65936732 37.22197164 -9.82967436 41.11097975 -11 45 C-11.66 44.67 -12.32 44.34 -13 44 C-12 36.57142857 -12 36.57142857 -11 33 C-13.31 33.66 -15.62 34.32 -18 35 C-17.67 36.32 -17.34 37.64 -17 39 C-17.99 39 -18.98 39 -20 39 C-21.485 35.535 -21.485 35.535 -23 32 C-22.40832031 31.93941406 -21.81664062 31.87882812 -21.20703125 31.81640625 C-17.09021792 31.37987629 -13.04455467 30.91328654 -9 30 C-8.89558594 29.23042969 -8.79117188 28.46085937 -8.68359375 27.66796875 C-7.77457201 22.79041783 -6.4286247 18.07919411 -5.0625 13.3125 C-4.79759766 12.36310547 -4.53269531 11.41371094 -4.25976562 10.43554688 C-4.00001953 9.52482422 -3.74027344 8.61410156 -3.47265625 7.67578125 C-3.23812744 6.84989502 -3.00359863 6.02400879 -2.76196289 5.1730957 C-2 3 -2 3 0 0 Z " fill="#493526" transform="translate(195,97)"/>
<path d="M0 0 C3.99500618 1.3697164 6.80009492 3.25722422 10 6 C8.60870061 10.86954788 6.13332746 13.16340273 2 16 C-0.8125 16.375 -0.8125 16.375 -3 16 C-3.33 15.67 -3.66 15.34 -4 15 C-3.60905161 9.33124828 -2.44900763 5.11097244 0 0 Z " fill="#A0754C" transform="translate(82,154)"/>
<path d="M0 0 C0.66 0 1.32 0 2 0 C1.3798964 6.11723819 -0.34744156 11.5855666 -2.375 17.375 C-2.67921875 18.28894531 -2.9834375 19.20289062 -3.296875 20.14453125 C-3.59851563 21.01207031 -3.90015625 21.87960938 -4.2109375 22.7734375 C-4.48212402 23.56153809 -4.75331055 24.34963867 -5.03271484 25.16162109 C-6 27 -6 27 -9 28 C-7.67554915 21.37105659 -5.78331885 15.24709958 -3.375 8.9375 C-2.88773438 7.6390918 -2.88773438 7.6390918 -2.390625 6.31445312 C-1.59908318 4.20755504 -0.80216278 2.10287198 0 0 Z M-9 28 C-7.64615385 35.38461538 -7.64615385 35.38461538 -9.4375 38.5 C-9.953125 38.995 -10.46875 39.49 -11 40 C-14.875 39.125 -14.875 39.125 -16 38 C-16.375 34.625 -16.375 34.625 -16 31 C-13.60259082 29.04421883 -12.12413392 28 -9 28 Z " fill="#42352C" transform="translate(206,104)"/>
<path d="M0 0 C0 0.99 0 1.98 0 3 C0.66 3 1.32 3 2 3 C0.375 8.75 0.375 8.75 -3 11 C-5.73468533 11.52378046 -8.27238255 11.58530124 -11 11 C-13 8.5 -13 8.5 -14 6 C-13.34 5.67 -12.68 5.34 -12 5 C-12 3.68 -12 2.36 -12 1 C-7.67265609 -1.22923777 -4.71599818 -0.92470553 0 0 Z " fill="#5F4B3B" transform="translate(151,110)"/>
<path d="M0 0 C-0.72538436 3.9858749 -1.78532224 7.80487833 -2.9375 11.6875 C-4.59857194 17.41970826 -5.97082944 23.12289442 -7 29 C-7.66 27.68 -8.32 26.36 -9 25 C-9.66 25.99 -10.32 26.98 -11 28 C-10.34 19.75 -9.68 11.5 -9 3 C-2 0 -2 0 0 0 Z " fill="#80B2D0" transform="translate(179,149)"/>
<path d="M0 0 C0.495 1.485 0.495 1.485 1 3 C-13.77555457 10.70048743 -28.76933503 10.40901779 -45 10 C-44.67 9.34 -44.34 8.68 -44 8 C-43.1478894 7.97812622 -43.1478894 7.97812622 -42.27856445 7.95581055 C-27.25306623 7.52598987 -13.89287475 6.17809555 0 0 Z " fill="#4E3522" transform="translate(165,130)"/>
<path d="M0 0 C1.670625 0.061875 1.670625 0.061875 3.375 0.125 C2.385 0.785 1.395 1.445 0.375 2.125 C0.375 2.785 0.375 3.445 0.375 4.125 C1.365 4.125 2.355 4.125 3.375 4.125 C4.035 3.465 4.695 2.805 5.375 2.125 C6.375 3.125 6.375 3.125 6.75 5.4375 C6.375 8.125 6.375 8.125 4.1875 10.5 C1.375 12.125 1.375 12.125 -1.3125 12 C-3.625 11.125 -3.625 11.125 -5.625 9.125 C-5.875 5.625 -5.875 5.625 -5.625 2.125 C-3.625 0.125 -3.625 0.125 0 0 Z " fill="#513A29" transform="translate(119.625,78.875)"/>
<path d="M0 0 C1.9375 1.6875 1.9375 1.6875 3 4 C3.1875 7.25 3.1875 7.25 3 10 C-1.39594806 10 -2.63443662 9.28351372 -6.25 7 C-7.14203125 6.443125 -8.0340625 5.88625 -8.953125 5.3125 C-9.96632812 4.6628125 -9.96632812 4.6628125 -11 4 C-8.42407961 -1.70382372 -5.97292422 -1.36224587 0 0 Z " fill="#9B714B" transform="translate(152,46)"/>
<path d="M0 0 C3.24481747 0.55230936 4.00343767 0.93464136 5.9375 3.5 C6.30588024 6.62547607 5.85305166 9.49720853 4.9375 12.5 C2.4375 14.875 2.4375 14.875 -0.0625 16.5 C-0.3925 17.49 -0.7225 18.48 -1.0625 19.5 C-1.7225 19.5 -2.3825 19.5 -3.0625 19.5 C-3.35125 18.736875 -3.64 17.97375 -3.9375 17.1875 C-5.02519013 14.34970692 -5.02519013 14.34970692 -7.0625 11.5 C-7.55328099 7.73734571 -7.31794727 5.95194517 -5.4375 2.625 C-3.0625 0.5 -3.0625 0.5 0 0 Z M-4.0625 4.5 C-4.64592353 8.04230809 -4.64592353 8.04230809 -4.0625 11.5 C-3.4025 12.16 -2.7425 12.82 -2.0625 13.5 C-0.0144572 13.4049261 -0.0144572 13.4049261 1.9375 12.5 C4.10367415 9.25073878 4.15085669 8.9014758 3.5625 5.3125 C3.35625 4.054375 3.15 2.79625 2.9375 1.5 C-0.18663392 1.5 -1.66509082 2.54421883 -4.0625 4.5 Z " fill="#433022" transform="translate(194.0625,130.5)"/>
<path d="M0 0 C0.33 0 0.66 0 1 0 C0.67 4.62 0.34 9.24 0 14 C0.99 14.66 1.98 15.32 3 16 C2.835 16.763125 2.67 17.52625 2.5 18.3125 C1.90854604 21.03596236 1.90854604 21.03596236 2 24 C-2.75 23.25 -2.75 23.25 -5 21 C-5.24742849 14.10734923 -3.70271624 7.31613035 -1 1 C-0.67 0.67 -0.34 0.34 0 0 Z " fill="#46362B" transform="translate(177,158)"/>
<path d="M0 0 C0.66 0 1.32 0 2 0 C2 1.32 2 2.64 2 4 C6.95 4 11.9 4 17 4 C16.67 4.66 16.34 5.32 16 6 C10.72 6 5.44 6 0 6 C-0.66 7.65 -1.32 9.3 -2 11 C-3.6875 13.3125 -3.6875 13.3125 -6 15 C-9.75 15.25 -9.75 15.25 -13 15 C-13.33 13.35 -13.66 11.7 -14 10 C-13.34 10.66 -12.68 11.32 -12 12 C-9.63242673 12.83541854 -9.63242673 12.83541854 -7 12 C-4.02025053 8.4072735 -2.05440511 4.1650953 0 0 Z " fill="#4C3321" transform="translate(102,211)"/>
<path d="M0 0 C3.16115776 1.36983503 3.9927092 1.9890638 6 5 C5.625 7.6875 5.625 7.6875 5 10 C2.9375 10.8125 2.9375 10.8125 0 11 C-2.54689275 9.58973707 -4.76642506 7.86023965 -7 6 C-4.74259377 3.66475218 -2.7194239 1.81294927 0 0 Z " fill="#A0754D" transform="translate(153,205)"/>
<path d="M0 0 C0.66 0 1.32 0 2 0 C2 4.62 2 9.24 2 14 C-4.75 13.125 -4.75 13.125 -7 12 C-6.38271885 8.61638481 -5.13020282 6.47997439 -3.0625 3.75 C-2.53785156 3.04359375 -2.01320312 2.3371875 -1.47265625 1.609375 C-0.74369141 0.81273438 -0.74369141 0.81273438 0 0 Z " fill="#C2C0BE" transform="translate(207,81)"/>
<path d="M0 0 C1.2065625 0.0309375 1.2065625 0.0309375 2.4375 0.0625 C2.1075 1.7125 1.7775 3.3625 1.4375 5.0625 C3.0875 4.4025 4.7375 3.7425 6.4375 3.0625 C6.6875 5.375 6.6875 5.375 6.4375 8.0625 C4.75 9.9375 4.75 9.9375 2.4375 11.0625 C-0.1875 10.9375 -0.1875 10.9375 -2.5625 10.0625 C-4.5625 7.0625 -4.5625 7.0625 -4.25 3.9375 C-3.32783333 0.08116667 -3.32783333 0.08116667 0 0 Z " fill="#4F3827" transform="translate(167.5625,74.9375)"/>
<path d="M0 0 C0.99 0 1.98 0 3 0 C4.85131483 3.92857754 5.22004943 6.98775112 5.125 11.3125 C5.10695312 12.38113281 5.08890625 13.44976562 5.0703125 14.55078125 C5.03550781 15.76314453 5.03550781 15.76314453 5 17 C3.35 17.33 1.7 17.66 0 18 C0 12.06 0 6.12 0 0 Z " fill="#EFEDEA" transform="translate(171,131)"/>
<path d="M0 0 C0.33 0 0.66 0 1 0 C1.0501123 0.58378418 1.10022461 1.16756836 1.15185547 1.76904297 C1.38715882 4.47156334 1.63104124 7.17324773 1.875 9.875 C1.95363281 10.7928125 2.03226562 11.710625 2.11328125 12.65625 C2.61537172 18.14062279 3.44262439 23.42263683 4.58544922 28.80810547 C5.08375116 31.44282564 5.2015112 33.94710788 5.125 36.625 C5.10695313 37.46289062 5.08890625 38.30078125 5.0703125 39.1640625 C5.03550781 40.07285156 5.03550781 40.07285156 5 41 C2.57667271 36.54074808 1.81254698 32.01083379 0.875 27.0625 C0.69686768 26.1255127 0.51873535 25.18852539 0.33520508 24.22314453 C-1.08967816 16.31378312 -2.59717599 7.79152798 0 0 Z " fill="#472F1D" transform="translate(68,85)"/>
<path d="M0 0 C1.0621875 0.15339844 2.124375 0.30679688 3.21875 0.46484375 C8.96097142 1.18262143 14.72098415 1.3516627 20.5 1.5625 C22.16289063 1.62727539 22.16289063 1.62727539 23.859375 1.69335938 C26.57281506 1.79862214 29.28633417 1.90075846 32 2 C32.495 3.485 32.495 3.485 33 5 C21.47854499 5.21242223 10.33373096 5.35506098 -1 3 C-0.67 2.01 -0.34 1.02 0 0 Z " fill="#634934" transform="translate(97,187)"/>
<path d="M0 0 C0.33 0 0.66 0 1 0 C1.60670868 7.52318764 0.15741968 12.65048631 -4 19 C-4.66 19.33 -5.32 19.66 -6 20 C-6.46651207 22.12576782 -6.46651207 22.12576782 -6.625 24.5625 C-6.69976562 25.38878906 -6.77453125 26.21507813 -6.8515625 27.06640625 C-6.90054688 27.70449219 -6.94953125 28.34257813 -7 29 C-7.33 29 -7.66 29 -8 29 C-8 26.69 -8 24.38 -8 22 C-8.66 22 -9.32 22 -10 22 C-10.33 22.99 -10.66 23.98 -11 25 C-12.98 24.34 -14.96 23.68 -17 23 C-16.42507812 22.72800781 -15.85015625 22.45601562 -15.2578125 22.17578125 C-10.75703362 19.83195003 -6.22181669 17.01865367 -3.5625 12.625 C-3.07248729 10.33827404 -2.76336058 8.13258127 -2.5 5.8125 C-2 2 -2 2 0 0 Z " fill="#614F40" transform="translate(178,77)"/>
<path d="M0 0 C0.33 0 0.66 0 1 0 C1.08174796 2.83392926 1.14084985 5.66544819 1.1875 8.5 C1.21263672 9.29148437 1.23777344 10.08296875 1.26367188 10.8984375 C1.33403498 16.62130318 0.29297398 20.75203857 -2 26 C-4 24 -4 24 -4.125 20.875 C-4.08375 19.92625 -4.0425 18.9775 -4 18 C-7.3 17.01 -10.6 16.02 -14 15 C-14.33 15.99 -14.66 16.98 -15 18 C-15.66 18 -16.32 18 -17 18 C-16.67 16.35 -16.34 14.7 -16 13 C-9.25 12.875 -9.25 12.875 -7 14 C-5.02 14 -3.04 14 -1 14 C-0.67 9.38 -0.34 4.76 0 0 Z " fill="#4E4741" transform="translate(211,80)"/>
<path d="M0 0 C0.99 0 1.98 0 3 0 C2.39297368 6.6772895 0.22368606 12.70127996 -2 19 C-3.32 19 -4.64 19 -6 19 C-4.70024676 12.28460827 -2.70071112 6.27980887 0 0 Z " fill="#42332A" transform="translate(199,103)"/>
<path d="M0 0 C0.99 0.33 1.98 0.66 3 1 C3 1.66 3 2.32 3 3 C4.32 2.67 5.64 2.34 7 2 C7 2.99 7 3.98 7 5 C5.35 5.33 3.7 5.66 2 6 C2.01160156 7.01320312 2.02320313 8.02640625 2.03515625 9.0703125 C2.04454209 10.42187314 2.05364143 11.7734358 2.0625 13.125 C2.07087891 13.79015625 2.07925781 14.4553125 2.08789062 15.140625 C2.10782292 19.20681354 1.78890161 23.0120092 1 27 C0.01 27.33 -0.98 27.66 -2 28 C-1.34 18.76 -0.68 9.52 0 0 Z " fill="#4D392B" transform="translate(168,146)"/>
<path d="M0 0 C0.94875 0.04125 1.8975 0.0825 2.875 0.125 C3.535 1.445 4.195 2.765 4.875 4.125 C3.225 6.435 1.575 8.745 -0.125 11.125 C-4 9.25 -4 9.25 -5.125 8.125 C-5.3125 5.1875 -5.3125 5.1875 -5.125 2.125 C-3.125 0.125 -3.125 0.125 0 0 Z " fill="#4B2F1A" transform="translate(77.125,58.875)"/>
<path d="M0 0 C1.875 0.6875 1.875 0.6875 2.875 1.6875 C2.275 8.2875 2.275 8.2875 -0.125 10.6875 C-3.66071429 10.15178571 -3.66071429 10.15178571 -5.125 8.6875 C-5.375 5.25 -5.375 5.25 -5.125 1.6875 C-2.125 -0.3125 -2.125 -0.3125 0 0 Z " fill="#9B714B" transform="translate(195.125,133.3125)"/>
<path d="M0 0 C6.10529532 -0.42105485 9.14274942 -0.10167827 14 4 C18.27821476 8.53259509 20.1353719 11.35801651 20.0625 17.625 C20.05347656 18.62789062 20.04445312 19.63078125 20.03515625 20.6640625 C20.02355469 21.43492188 20.01195312 22.20578125 20 23 C19.67 23 19.34 23 19 23 C18.91363281 22.443125 18.82726562 21.88625 18.73828125 21.3125 C17.66881209 15.50400694 15.92335731 10.51944751 12 6 C9.45801059 4.45664929 7.868647 3.98161058 4.875 3.5625 C3.92625 3.376875 2.9775 3.19125 2 3 C1.34 2.01 0.68 1.02 0 0 Z " fill="#4A382C" transform="translate(158,62)"/>
<path d="M0 0 C0.99 0.33 1.98 0.66 3 1 C0.31158141 3.25245881 -1.64641875 4.88213958 -5 6 C-6.14209817 7.78228936 -6.14209817 7.78228936 -7 10 C-7.350625 10.763125 -7.70125 11.52625 -8.0625 12.3125 C-9.18100258 15.51887406 -9.60408793 18.63474739 -10 22 C-10.66 22 -11.32 22 -12 22 C-12.64071437 15.84914202 -12.01683656 11.83118453 -8.4375 6.7265625 C-6.01128453 3.81246675 -3.3810164 1.6905082 0 0 Z " fill="#4E3421" transform="translate(105,66)"/>
<path d="M0 0 C0 1.98 0 3.96 0 6 C-0.66 4.68 -1.32 3.36 -2 2 C-2.33 2.99 -2.66 3.98 -3 5 C-5.64 5 -8.28 5 -11 5 C-10.67 4.34 -10.34 3.68 -10 3 C-12.64 2.67 -15.28 2.34 -18 2 C-18 1.34 -18 0.68 -18 0 C-11.78675502 -0.73030908 -6.15901243 -1.23180249 0 0 Z " fill="#A3C0D6" transform="translate(131,160)"/>
<path d="M0 0 C0.66 0.33 1.32 0.66 2 1 C1.01 1.66 0.02 2.32 -1 3 C-0.67 2.01 -0.34 1.02 0 0 Z M-3 3 C-1 4 -1 4 0 6 C-0.825 6.37125 -1.65 6.7425 -2.5 7.125 C-3.325 7.74375 -4.15 8.3625 -5 9 C-5.41746608 12.12635209 -5.41746608 12.12635209 -5 15 C-2.03 15.495 -2.03 15.495 1 16 C0.01 16.99 -0.98 17.98 -2 19 C-4.91517292 17.92598892 -6.77810176 17.22189824 -9 15 C-9.51675938 11.12430466 -9.31754464 9.47631696 -7.125 6.1875 C-5 4 -5 4 -3 3 Z " fill="#5E432B" transform="translate(137,93)"/>
<path d="M0 0 C2.68196737 5.36393473 1.84795611 8.45269864 0.03515625 13.8984375 C-0.94503735 16.61228313 -1.95444606 19.31073801 -3 22 C-3.33 21.01 -3.66 20.02 -4 19 C-4.66 18.67 -5.32 18.34 -6 18 C-4.02 12.06 -2.04 6.12 0 0 Z M0 4 C1 6 1 6 1 6 Z " fill="#4C7FAA" transform="translate(202,104)"/>
<path d="M0 0 C0.66 2.64 1.32 5.28 2 8 C0.54176788 8.0270043 -0.91660675 8.04639787 -2.375 8.0625 C-3.18710938 8.07410156 -3.99921875 8.08570313 -4.8359375 8.09765625 C-7 8 -7 8 -9 7 C-9 6.01 -9 5.02 -9 4 C-2.25 0 -2.25 0 0 0 Z " fill="#A1764F" transform="translate(68,188)"/>
<path d="M0 0 C1.75 0.4375 3.5 0.875 5.25 1.3125 C6.87421875 1.71855469 6.87421875 1.71855469 8.53125 2.1328125 C10.84375 2.7109375 13.15625 3.2890625 15.46875 3.8671875 C16.5515625 4.13789063 17.634375 4.40859375 18.75 4.6875 C20.5 5.125 22.25 5.5625 24 6 C24 6.66 24 7.32 24 8 C18.41376237 8.27124776 13.93044576 7.3924729 8.625 5.6875 C7.90183594 5.47416016 7.17867188 5.26082031 6.43359375 5.04101562 C4.3515625 4.38671875 4.3515625 4.38671875 1 3 C0.67 2.01 0.34 1.02 0 0 Z " fill="#4F3420" transform="translate(73,181)"/>
<path d="M0 0 C-0.53851968 5.27749285 -1.77343836 9.25645564 -4 14 C-6.02350324 10.96474514 -6.32124018 9.80573798 -6.625 6.3125 C-6.69976562 5.50425781 -6.77453125 4.69601563 -6.8515625 3.86328125 C-6.90054688 3.24839844 -6.94953125 2.63351563 -7 2 C-2.25 0 -2.25 0 0 0 Z " fill="#9E744D" transform="translate(184,130)"/>
<path d="M0 0 C0 0.66 0 1.32 0 2 C-10.24569094 4.68949387 -19.48063576 5.36886082 -30 5 C-30 4.67 -30 4.34 -30 4 C-29.11957031 3.95101562 -28.23914063 3.90203125 -27.33203125 3.8515625 C-26.17058594 3.77679688 -25.00914063 3.70203125 -23.8125 3.625 C-22.08966797 3.52058594 -22.08966797 3.52058594 -20.33203125 3.4140625 C-17.17111076 3.02126347 -14.90102253 2.24607679 -12 1 C-8.01886123 0.21415138 -4.05686764 0 0 0 Z " fill="#51443A" transform="translate(135,213)"/>
<path d="M0 0 C0.33 0 0.66 0 1 0 C0.354523 7.90709331 -1.86997139 15.39133967 -4 23 C-4.99 22.34 -5.98 21.68 -7 21 C-5.34886481 13.60741743 -3.37964731 6.79360575 0 0 Z " fill="#463E37" transform="translate(195,97)"/>
<path d="M0 0 C1.485 0.99 1.485 0.99 3 2 C3.41416399 4.58089562 3.43915839 7.076065 3.49609375 9.6875 C3.75443135 12.18056885 3.75443135 12.18056885 6.03515625 13.3125 C6.68355469 13.539375 7.33195312 13.76625 8 14 C8 14.99 8 15.98 8 17 C7.21625 16.95875 6.4325 16.9175 5.625 16.875 C2.83883881 16.71271266 2.83883881 16.71271266 1 19 C-0.15316726 12.65758005 -0.09507063 6.43311296 0 0 Z " fill="#56483D" transform="translate(65,166)"/>
<path d="M0 0 C0 0.99 0 1.98 0 3 C-1.98 3.66 -3.96 4.32 -6 5 C-6 5.99 -6 6.98 -6 8 C-3.03 8.33 -0.06 8.66 3 9 C2.01 9.99 1.02 10.98 0 12 C-3.48032201 11.73897585 -5.05096298 10.96602468 -8 9 C-8.5625 6.625 -8.5625 6.625 -8 4 C-3.02702703 0 -3.02702703 0 0 0 Z " fill="#4E3B2C" transform="translate(65,187)"/>
<path d="M0 0 C0.66 0.66 1.32 1.32 2 2 C1.69602069 7.92759664 -0.90035684 13.51163045 -3 19 C-3.99 19 -4.98 19 -6 19 C-4.3186083 12.51292846 -2.46937673 6.2322365 0 0 Z " fill="#443A36" transform="translate(190,148)"/>
<path d="M0 0 C0.66 0 1.32 0 2 0 C2 6.6 2 13.2 2 20 C1.34 20.33 0.68 20.66 0 21 C0 16.05 0 11.1 0 6 C-0.99 5.67 -1.98 5.34 -3 5 C-2.34 4.67 -1.68 4.34 -1 4 C-0.34786708 1.97536745 -0.34786708 1.97536745 0 0 Z " fill="#453123" transform="translate(209,74)"/>
<path d="M0 0 C0.33 0 0.66 0 1 0 C0.4237919 8.41567099 -0.61772049 16.67948259 -2 25 C-2.33 25 -2.66 25 -3 25 C-3.55353075 8.29157175 -3.55353075 8.29157175 0 0 Z " fill="#473426" transform="translate(69,151)"/>
<path d="M0 0 C0 2.97 0 5.94 0 9 C-1.32 9 -2.64 9 -4 9 C-5.25664978 6.09399739 -6 4.20395416 -6 1 C-3 0 -3 0 0 0 Z " fill="#ECEAE7" transform="translate(145,110)"/>
<path d="M0 0 C0.103125 1.11375 0.20625 2.2275 0.3125 3.375 C0.539375 4.57125 0.76625 5.7675 1 7 C1.99 7.66 2.98 8.32 4 9 C3.01 9.33 2.02 9.66 1 10 C0.01 11.485 0.01 11.485 -1 13 C-1.66 12.67 -2.32 12.34 -3 12 C-3 8.37 -3 4.74 -3 1 C-1 0 -1 0 0 0 Z " fill="#584B3F" transform="translate(74,121)"/>
<path d="M0 0 C1.33808088 4.01424265 1.19932094 7.81426024 1 12 C0.01 13.485 0.01 13.485 -1 15 C-1.99 15 -2.98 15 -4 15 C-3.52229477 13.06213915 -3.04278429 11.12472326 -2.5625 9.1875 C-2.29566406 8.10855469 -2.02882812 7.02960938 -1.75390625 5.91796875 C-1.23922588 3.9259157 -0.65062825 1.95188476 0 0 Z " fill="#4B7EA8" transform="translate(197,95)"/>
<path d="M0 0 C0.99 0.33 1.98 0.66 3 1 C3.13277344 1.68707031 3.26554688 2.37414062 3.40234375 3.08203125 C3.57894531 3.98308594 3.75554687 4.88414063 3.9375 5.8125 C4.19853516 7.15248047 4.19853516 7.15248047 4.46484375 8.51953125 C4.97741153 11.11397171 4.97741153 11.11397171 6 14 C5.01 14.33 4.02 14.66 3 15 C1.094753 9.89665983 -0.42589023 5.53657294 0 0 Z " fill="#573D29" transform="translate(147,76)"/>
<path d="M0 0 C0.66 0 1.32 0 2 0 C0.7580393 3.43927579 -0.55740284 6.25207819 -3 9 C-3.66 9 -4.32 9 -5 9 C-5 9.99 -5 10.98 -5 12 C-5.66 12 -6.32 12 -7 12 C-6.38271885 8.61638481 -5.13020282 6.47997439 -3.0625 3.75 C-2.53785156 3.04359375 -2.01320313 2.3371875 -1.47265625 1.609375 C-0.74369141 0.81273437 -0.74369141 0.81273437 0 0 Z " fill="#584335" transform="translate(85,141)"/>
<path d="M0 0 C1.71948485 2.96948578 2.22039127 4.91452225 1.9765625 8.328125 C1.925 9.12734375 1.8734375 9.9265625 1.8203125 10.75 C1.75585938 11.575 1.69140625 12.4 1.625 13.25 C1.56828125 14.09046875 1.5115625 14.9309375 1.453125 15.796875 C1.31209668 17.86529042 1.15738212 19.9327646 1 22 C0.67 22 0.34 22 0 22 C-0.06058594 21.25234375 -0.12117188 20.5046875 -0.18359375 19.734375 C-0.26738281 18.74953125 -0.35117188 17.7646875 -0.4375 16.75 C-0.51871094 15.77546875 -0.59992188 14.8009375 -0.68359375 13.796875 C-0.91509517 11.08641272 -0.91509517 11.08641272 -1.59375 8.875 C-2.27830116 5.71553312 -0.98106015 3.00088987 0 0 Z " fill="#5C4634" transform="translate(69,77)"/>
<path d="M0 0 C4.29 0.66 8.58 1.32 13 2 C13 2.66 13 3.32 13 4 C8.17639811 4.19294408 4.50353262 3.75747614 0 2 C0 1.34 0 0.68 0 0 Z " fill="#4F3623" transform="translate(87,133)"/>
<path d="M0 0 C0.66 0 1.32 0 2 0 C2 0.99 2 1.98 2 3 C-1.3146667 5.02907167 -3.4315979 5.12742133 -7.25 4.625 C-8.14203125 4.51414062 -9.0340625 4.40328125 -9.953125 4.2890625 C-10.96632813 4.14597656 -10.96632813 4.14597656 -12 4 C-12 3.67 -12 3.34 -12 3 C-10.82630859 2.80083984 -10.82630859 2.80083984 -9.62890625 2.59765625 C-8.61699219 2.42105469 -7.60507813 2.24445313 -6.5625 2.0625 C-5.55316406 1.88847656 -4.54382813 1.71445313 -3.50390625 1.53515625 C-1.0712562 1.25248903 -1.0712562 1.25248903 0 0 Z " fill="#5E4939" transform="translate(122,99)"/>
<path d="M0 0 C0.99 0.33 1.98 0.66 3 1 C2.67 4.3 2.34 7.6 2 11 C1.01 11.33 0.02 11.66 -1 12 C-0.67 8.04 -0.34 4.08 0 0 Z " fill="#54473D" transform="translate(167,162)"/>
<path d="M0 0 C0.33 0.99 0.66 1.98 1 3 C1.66 3.33 2.32 3.66 3 4 C2.01 5.485 2.01 5.485 1 7 C0.29835358 8.98799818 -0.37372872 10.98698517 -1 13 C-1.66 12.67 -2.32 12.34 -3 12 C-2.01 8.04 -1.02 4.08 0 0 Z " fill="#507CA2" transform="translate(187,129)"/>
<path d="M0 0 C0.33 0.99 0.66 1.98 1 3 C-2.63 3.33 -6.26 3.66 -10 4 C-10 3.34 -10 2.68 -10 2 C-8.7090864 1.66376204 -7.41723903 1.33110751 -6.125 1 C-5.40570313 0.814375 -4.68640625 0.62875 -3.9453125 0.4375 C-2 0 -2 0 0 0 Z " fill="#5D452F" transform="translate(147,187)"/>
<path d="M0 0 C2.475 0.495 2.475 0.495 5 1 C4.67 2.65 4.34 4.3 4 6 C2.68 6 1.36 6 0 6 C0 4.02 0 2.04 0 0 Z " fill="#BEBAB5" transform="translate(175,173)"/>
<path d="M0 0 C0 0.66 0 1.32 0 2 C-3.96 2.66 -7.92 3.32 -12 4 C-11.67 3.01 -11.34 2.02 -11 1 C-7.27569643 0.30710631 -3.78916254 -0.11144596 0 0 Z " fill="#4F3724" transform="translate(153,136)"/>
<path d="M0 0 C1.32 0 2.64 0 4 0 C3.67 2.31 3.34 4.62 3 7 C2.01 7.33 1.02 7.66 0 8 C0 5.36 0 2.72 0 0 Z " fill="#EBE8E5" transform="translate(147,110)"/>
<path d="M0 0 C2.64 0.66 5.28 1.32 8 2 C8 3.65 8 5.3 8 7 C7.34 7 6.68 7 6 7 C6 6.01 6 5.02 6 4 C3.69 3.67 1.38 3.34 -1 3 C-0.67 2.01 -0.34 1.02 0 0 Z " fill="#472D1A" transform="translate(145,106)"/>
<path d="M0 0 C0.33 0 0.66 0 1 0 C1.02712066 1.43739513 1.04645067 2.87493863 1.0625 4.3125 C1.07410156 5.11300781 1.08570313 5.91351563 1.09765625 6.73828125 C1 9 1 9 0 12 C-0.99 12 -1.98 12 -3 12 C-2.88601335 10.37419034 -2.75844341 8.74932843 -2.625 7.125 C-2.55539063 6.22007813 -2.48578125 5.31515625 -2.4140625 4.3828125 C-2 2 -2 2 0 0 Z " fill="#58524D" transform="translate(178,77)"/>
<path d="M0 0 C0.66 0 1.32 0 2 0 C1.43454163 3.95820859 0.19097652 6.6659053 -2 10 C-2.33 9.34 -2.66 8.68 -3 8 C-3.66 7.67 -4.32 7.34 -5 7 C-4.54625 6.5875 -4.0925 6.175 -3.625 5.75 C-1.94049626 3.93591905 -1.00734029 2.24714373 0 0 Z " fill="#543F32" transform="translate(99,153)"/>
<path d="M0 0 C7.38461538 -0.36923077 7.38461538 -0.36923077 10.5 1.5 C10.995 1.995 11.49 2.49 12 3 C8.42030426 4.23912545 5.64409679 3.95063395 2 3 C1.34 2.01 0.68 1.02 0 0 Z " fill="#564D46" transform="translate(158,62)"/>
<path d="M0 0 C1.60080151 4.00200378 0.29279692 7.04556236 -1 11 C-1.66 10.67 -2.32 10.34 -3 10 C-2.25 3.375 -2.25 3.375 0 0 Z " fill="#463020" transform="translate(185,131)"/>
<path d="M0 0 C-5.14285714 4.42857143 -5.14285714 4.42857143 -9 5 C-9.33 4.01 -9.66 3.02 -10 2 C-8.71211992 1.46987262 -7.41953322 0.9511671 -6.125 0.4375 C-5.40570313 0.14746094 -4.68640625 -0.14257812 -3.9453125 -0.44140625 C-2 -1 -2 -1 0 0 Z " fill="#4F3623" transform="translate(144,210)"/>
<path d="M0 0 C0.99 0.33 1.98 0.66 3 1 C3 2.32 3 3.64 3 5 C3.99 5.33 4.98 5.66 6 6 C6.33 6.66 6.66 7.32 7 8 C2.25 7.25 2.25 7.25 0 5 C-0.125 2.375 -0.125 2.375 0 0 Z " fill="#504C49" transform="translate(172,174)"/>
<path d="M0 0 C0.99 0.66 1.98 1.32 3 2 C2.34 4.31 1.68 6.62 1 9 C0.67 8.34 0.34 7.68 0 7 C-0.66 7 -1.32 7 -2 7 C-1.34 4.69 -0.68 2.38 0 0 Z " fill="#634B37" transform="translate(78,155)"/>
<path d="M0 0 C2.375 0.3125 2.375 0.3125 5 1 C5.66 1.99 6.32 2.98 7 4 C6.34 4.66 5.68 5.32 5 6 C4.01 6 3.02 6 2 6 C2 4.68 2 3.36 2 2 C1.34 1.34 0.68 0.68 0 0 Z " fill="#C7C3BD" transform="translate(167,74)"/>
<path d="M0 0 C1 3 1 3 -0.4375 6.1875 C-1.2109375 7.5796875 -1.2109375 7.5796875 -2 9 C-2.66 9 -3.32 9 -4 9 C-4.33 8.01 -4.66 7.02 -5 6 C-4.01 6 -3.02 6 -2 6 C-1.855625 5.195625 -1.71125 4.39125 -1.5625 3.5625 C-1 1 -1 1 0 0 Z " fill="#412D20" transform="translate(185,166)"/>
<path d="M0 0 C-3.18762365 2.12508244 -5.26512223 2.5020163 -9 3 C-9.33 2.01 -9.66 1.02 -10 0 C-6.42355152 -1.2380014 -3.66305234 -0.74926071 0 0 Z " fill="#4F3B2C" transform="translate(114,47)"/>
<path d="M0 0 C1.98 0.99 3.96 1.98 6 3 C5.01 4.485 5.01 4.485 4 6 C2.02 4.68 0.04 3.36 -2 2 C-1.34 1.34 -0.68 0.68 0 0 Z " fill="#4F3A2A" transform="translate(82,206)"/>
<path d="M0 0 C6.75 -0.125 6.75 -0.125 9 1 C9 1.66 9 2.32 9 3 C6.03 2.67 3.06 2.34 0 2 C0 1.34 0 0.68 0 0 Z " fill="#4E321E" transform="translate(109,65)"/>
<path d="M0 0 C0.66 0 1.32 0 2 0 C1.40138258 2.35171131 0.73075648 4.6859378 0 7 C-0.99 7.495 -0.99 7.495 -2 8 C-1.125 1.125 -1.125 1.125 0 0 Z " fill="#463224" transform="translate(163,186)"/>
<path d="M0 0 C0.33 0.99 0.66 1.98 1 3 C-2.3 2.67 -5.6 2.34 -9 2 C-5.5647952 -0.29013653 -4.014669 -0.17842973 0 0 Z " fill="#644F3F" transform="translate(106,136)"/>
<path d="M0 0 C1.65 0 3.3 0 5 0 C4.34 1.32 3.68 2.64 3 4 C1.68 3.67 0.36 3.34 -1 3 C-0.67 2.01 -0.34 1.02 0 0 Z " fill="#E2DFDB" transform="translate(120,80)"/>
<path d="M0 0 C0.33 0 0.66 0 1 0 C1.66 2.64 2.32 5.28 3 8 C2.01 8 1.02 8 0 8 C-0.98120464 4.94736336 -0.98120464 3.05263664 0 0 Z " fill="#533C2D" transform="translate(189,137)"/>
<path d="M0 0 C1.74627478 2.61941217 2.38722388 4.03824877 3 7 C1.0625 6.25 1.0625 6.25 -1 5 C-1.75 2.875 -1.75 2.875 -2 1 C-1.34 0.67 -0.68 0.34 0 0 Z " fill="#5F4733" transform="translate(139,114)"/>
<path d="M0 0 C0.33 0 0.66 0 1 0 C0.67 2.64 0.34 5.28 0 8 C-0.66 8 -1.32 8 -2 8 C-1.125 1.125 -1.125 1.125 0 0 Z " fill="#403128" transform="translate(195,97)"/>
<path d="M0 0 C2.64 1.98 5.28 3.96 8 6 C7.34 6.66 6.68 7.32 6 8 C1.125 4.5 1.125 4.5 0 0 Z " fill="#846446" transform="translate(150,91)"/>
<path d="M0 0 C0.66 0 1.32 0 2 0 C2 1.65 2 3.3 2 5 C0.68 5 -0.64 5 -2 5 C-1.125 1.125 -1.125 1.125 0 0 Z " fill="#483526" transform="translate(198,89)"/>
</svg>
